# xmcd
#
# Track frame offsets: 
#        182
#        13287
#        28157
#        45740
#        56290
#        66180
#        79602
#        94212
#        105257
#        118245
#        129565
#        140372
#        159127
#        172352
#
# Disc length: 2470 seconds
#
# Revision: 2
# Processed by: cddbd v1.5.2PL0 Copyright (c) Steve Scherf et al.
# Submitted via: ExactAudioCopy v0.99pb5
#
DISCID=bb09a40e
DTITLE=Shirley Bassey - born to sing
DYEAR=1994
DGENRE=Blues
TTITLE0=As I Love You
TTITLE1=Stormy Weather
TTITLE2=Love For Sale
TTITLE3=Hands Across The Sea
TTITLE4=There's Never Been A Night
TTITLE5=Night And Day
TTITLE6=My Funny Valentine
TTITLE7=Kiss Me, Honey Honey, Kiss Me
TTITLE8=The Gipsy In My Soul
TTITLE9=Crazy Rhythm
TTITLE10=How About You?
TTITLE11=The Birth Of The Blues
TTITLE12=The Wayward Wind
TTITLE13=Born To Sing The Blues
EXTD=
EXTT0=Livingston/Evans
EXTT1=Koehler/Arlen
EXTT2=Porter
EXTT3=Jay/Reid/Kosloff
EXTT4=Schuster/Davie
EXTT5=Porter
EXTT6=Rodgers/Hart
EXTT7=Timothy/Julien
EXTT8=Jaffe/Boland
EXTT9=Caesar/Meyer/Kahn
EXTT10=Lane/Freed
EXTT11=De Sylva/Brown/Henderson
EXTT12=Lebowsky/Newman
EXTT13=Adelson/Carpenter
PLAYORDER=
